name ./resultDataOpenSim/trcMotMarkerGrf/sub09/grf-14-05.mot
datacolumns 19
datarows 10
range 1.45200000 1.48800000
endheader

                time	     ground_force_vx	     ground_force_vy	     ground_force_vz	     ground_force_px	     ground_force_py	     ground_force_pz	   l_ground_force_vx	   l_ground_force_vy	   l_ground_force_vz	   l_ground_force_px	   l_ground_force_py	   l_ground_force_pz	     ground_torque_x	     ground_torque_y	     ground_torque_z	   l_ground_torque_x	   l_ground_torque_y	   l_ground_torque_z	
          1.45200000	        -42.77399981	        460.04942019	         -1.45756801	          1.08682516	          0.00000000	          0.05147807	          0.00000000	          0.00000000	          0.00000000	          0.00000000	          0.00000000	          0.00000000	          0.00000000	          1.68661122	          0.00000000	          0.00000000	          0.00000000	          0.00000000	
          1.45600000	        -41.57424032	        456.39087996	          0.30875607	          1.08719838	          0.00000000	          0.05107925	          0.00000000	          0.00000000	          0.00000000	          0.00000000	          0.00000000	          0.00000000	          0.00000000	          1.90246206	          0.00000000	          0.00000000	          0.00000000	          0.00000000	
          1.46000000	        -40.09339469	        452.78826323	          0.21014034	          1.08753542	          0.00000000	          0.05079115	          0.00000000	          0.00000000	          0.00000000	          0.00000000	          0.00000000	          0.00000000	          0.00000000	          1.91882684	          0.00000000	          0.00000000	          0.00000000	          0.00000000	
          1.46400000	        -38.27315670	        449.22507378	         -1.59981187	          1.08785379	          0.00000000	          0.05061116	          0.00000000	          0.00000000	          0.00000000	          0.00000000	          0.00000000	          0.00000000	          0.00000000	          1.74470631	          0.00000000	          0.00000000	          0.00000000	          0.00000000	
          1.46800000	        -36.17047138	        445.71696429	         -4.67641373	          1.08816188	          0.00000000	          0.05051695	          0.00000000	          0.00000000	          0.00000000	          0.00000000	          0.00000000	          0.00000000	          0.00000000	          1.42509683	          0.00000000	          0.00000000	          0.00000000	          0.00000000	
          1.47200000	        -33.93885895	        442.33480443	         -8.37537340	          1.08845676	          0.00000000	          0.05047383	          0.00000000	          0.00000000	          0.00000000	          0.00000000	          0.00000000	          0.00000000	          0.00000000	          1.03083894	          0.00000000	          0.00000000	          0.00000000	          0.00000000	
          1.47600000	        -31.78166971	        439.19040178	        -11.96838261	          1.08873743	          0.00000000	          0.05043921	          0.00000000	          0.00000000	          0.00000000	          0.00000000	          0.00000000	          0.00000000	          0.00000000	          0.64399020	          0.00000000	          0.00000000	          0.00000000	          0.00000000	
          1.48000000	        -29.88910766	        436.39007123	        -14.77325067	          1.08900331	          0.00000000	          0.05036957	          0.00000000	          0.00000000	          0.00000000	          0.00000000	          0.00000000	          0.00000000	          0.00000000	          0.34218792	          0.00000000	          0.00000000	          0.00000000	          0.00000000	
          1.48400000	        -28.38456118	        434.00218866	        -16.27255998	          1.08926522	          0.00000000	          0.05023581	          0.00000000	          0.00000000	          0.00000000	          0.00000000	          0.00000000	          0.00000000	          0.00000000	          0.18505264	          0.00000000	          0.00000000	          0.00000000	          0.00000000	
          1.48800000	        -27.29706568	        432.06110285	        -16.19508447	          1.08953574	          0.00000000	          0.05002623	          0.00000000	          0.00000000	          0.00000000	          0.00000000	          0.00000000	          0.00000000	          0.00000000	          0.20463058	          0.00000000	          0.00000000	          0.00000000	          0.00000000	
